<mxfile host="Electron" agent="Mozilla/5.0 (Windows NT 10.0; Win64; x64) AppleWebKit/537.36 (KHTML, like Gecko) draw.io/28.1.2 Chrome/138.0.7204.243 Electron/37.4.0 Safari/537.36" version="28.1.2">
  <diagram name="PÃ¡gina-1" id="8ejkX1LquGYLiZkTDePT">
    <mxGraphModel dx="1042" dy="626" grid="1" gridSize="10" guides="1" tooltips="1" connect="1" arrows="1" fold="1" page="1" pageScale="1" pageWidth="583" pageHeight="827" math="0" shadow="0">
      <root>
        <mxCell id="0" />
        <mxCell id="1" parent="0" />
        <mxCell id="9Qf3MclOuTPKe-SrMDse-4" style="edgeStyle=orthogonalEdgeStyle;rounded=0;orthogonalLoop=1;jettySize=auto;html=1;exitX=0.5;exitY=1;exitDx=0;exitDy=0;entryX=0.5;entryY=0;entryDx=0;entryDy=0;" edge="1" parent="1" source="9Qf3MclOuTPKe-SrMDse-1" target="9Qf3MclOuTPKe-SrMDse-3">
          <mxGeometry relative="1" as="geometry" />
        </mxCell>
        <mxCell id="9Qf3MclOuTPKe-SrMDse-1" value="INICIO" style="rounded=1;whiteSpace=wrap;html=1;" vertex="1" parent="1">
          <mxGeometry x="240" y="20" width="120" height="60" as="geometry" />
        </mxCell>
        <mxCell id="9Qf3MclOuTPKe-SrMDse-2" value="FIN" style="rounded=1;whiteSpace=wrap;html=1;" vertex="1" parent="1">
          <mxGeometry x="241" y="580" width="120" height="60" as="geometry" />
        </mxCell>
        <mxCell id="9Qf3MclOuTPKe-SrMDse-5" style="edgeStyle=orthogonalEdgeStyle;rounded=0;orthogonalLoop=1;jettySize=auto;html=1;exitX=0.5;exitY=1;exitDx=0;exitDy=0;" edge="1" parent="1" source="9Qf3MclOuTPKe-SrMDse-3">
          <mxGeometry relative="1" as="geometry">
            <mxPoint x="305" y="200" as="targetPoint" />
          </mxGeometry>
        </mxCell>
        <mxCell id="9Qf3MclOuTPKe-SrMDse-8" style="edgeStyle=orthogonalEdgeStyle;rounded=0;orthogonalLoop=1;jettySize=auto;html=1;exitX=1;exitY=0.5;exitDx=0;exitDy=0;entryX=0.5;entryY=0;entryDx=0;entryDy=0;" edge="1" parent="1" source="9Qf3MclOuTPKe-SrMDse-3" target="9Qf3MclOuTPKe-SrMDse-10">
          <mxGeometry relative="1" as="geometry">
            <mxPoint x="370" y="365" as="targetPoint" />
            <Array as="points">
              <mxPoint x="460" y="140" />
              <mxPoint x="460" y="280" />
              <mxPoint x="305" y="280" />
            </Array>
          </mxGeometry>
        </mxCell>
        <mxCell id="9Qf3MclOuTPKe-SrMDse-11" value="OPCION" style="edgeLabel;html=1;align=center;verticalAlign=middle;resizable=0;points=[];" vertex="1" connectable="0" parent="9Qf3MclOuTPKe-SrMDse-8">
          <mxGeometry x="-0.0621" relative="1" as="geometry">
            <mxPoint as="offset" />
          </mxGeometry>
        </mxCell>
        <mxCell id="9Qf3MclOuTPKe-SrMDse-3" value="While (True)" style="rhombus;whiteSpace=wrap;html=1;" vertex="1" parent="1">
          <mxGeometry x="275" y="110" width="60" height="60" as="geometry" />
        </mxCell>
        <mxCell id="9Qf3MclOuTPKe-SrMDse-7" style="edgeStyle=orthogonalEdgeStyle;rounded=0;orthogonalLoop=1;jettySize=auto;html=1;exitX=0.5;exitY=1;exitDx=0;exitDy=0;entryX=0;entryY=0.5;entryDx=0;entryDy=0;" edge="1" parent="1" source="9Qf3MclOuTPKe-SrMDse-6" target="9Qf3MclOuTPKe-SrMDse-3">
          <mxGeometry relative="1" as="geometry">
            <mxPoint x="200" y="130" as="targetPoint" />
            <Array as="points">
              <mxPoint x="300" y="280" />
              <mxPoint x="201" y="280" />
              <mxPoint x="201" y="140" />
            </Array>
          </mxGeometry>
        </mxCell>
        <mxCell id="9Qf3MclOuTPKe-SrMDse-6" value="MENU REGISTRO PEDIDO" style="rounded=1;whiteSpace=wrap;html=1;" vertex="1" parent="1">
          <mxGeometry x="240" y="200" width="120" height="60" as="geometry" />
        </mxCell>
        <mxCell id="9Qf3MclOuTPKe-SrMDse-12" style="edgeStyle=orthogonalEdgeStyle;rounded=0;orthogonalLoop=1;jettySize=auto;html=1;exitX=0.5;exitY=1;exitDx=0;exitDy=0;" edge="1" parent="1" source="9Qf3MclOuTPKe-SrMDse-10">
          <mxGeometry relative="1" as="geometry">
            <mxPoint x="305" y="390" as="targetPoint" />
          </mxGeometry>
        </mxCell>
        <mxCell id="9Qf3MclOuTPKe-SrMDse-19" style="edgeStyle=orthogonalEdgeStyle;rounded=0;orthogonalLoop=1;jettySize=auto;html=1;exitX=0.5;exitY=1;exitDx=0;exitDy=0;entryX=0.5;entryY=0;entryDx=0;entryDy=0;" edge="1" parent="1" source="9Qf3MclOuTPKe-SrMDse-10" target="9Qf3MclOuTPKe-SrMDse-13">
          <mxGeometry relative="1" as="geometry" />
        </mxCell>
        <mxCell id="9Qf3MclOuTPKe-SrMDse-20" style="edgeStyle=orthogonalEdgeStyle;rounded=0;orthogonalLoop=1;jettySize=auto;html=1;exitX=1;exitY=0.5;exitDx=0;exitDy=0;entryX=0.5;entryY=0;entryDx=0;entryDy=0;" edge="1" parent="1" source="9Qf3MclOuTPKe-SrMDse-10" target="9Qf3MclOuTPKe-SrMDse-21">
          <mxGeometry relative="1" as="geometry">
            <mxPoint x="520" y="430" as="targetPoint" />
            <Array as="points">
              <mxPoint x="510" y="365" />
            </Array>
          </mxGeometry>
        </mxCell>
        <mxCell id="9Qf3MclOuTPKe-SrMDse-22" value="OPCION=1" style="edgeLabel;html=1;align=center;verticalAlign=middle;resizable=0;points=[];" vertex="1" connectable="0" parent="9Qf3MclOuTPKe-SrMDse-20">
          <mxGeometry x="-0.2542" y="1" relative="1" as="geometry">
            <mxPoint as="offset" />
          </mxGeometry>
        </mxCell>
        <mxCell id="9Qf3MclOuTPKe-SrMDse-10" value="OPCION=2" style="rhombus;whiteSpace=wrap;html=1;" vertex="1" parent="1">
          <mxGeometry x="269" y="330" width="70" height="70" as="geometry" />
        </mxCell>
        <mxCell id="9Qf3MclOuTPKe-SrMDse-17" style="edgeStyle=orthogonalEdgeStyle;rounded=0;orthogonalLoop=1;jettySize=auto;html=1;exitX=0.5;exitY=1;exitDx=0;exitDy=0;entryX=0.5;entryY=0;entryDx=0;entryDy=0;" edge="1" parent="1" source="9Qf3MclOuTPKe-SrMDse-13" target="9Qf3MclOuTPKe-SrMDse-14">
          <mxGeometry relative="1" as="geometry" />
        </mxCell>
        <mxCell id="9Qf3MclOuTPKe-SrMDse-13" value="RESUMEN PEDIDO" style="rounded=1;whiteSpace=wrap;html=1;" vertex="1" parent="1">
          <mxGeometry x="241" y="420" width="120" height="60" as="geometry" />
        </mxCell>
        <mxCell id="9Qf3MclOuTPKe-SrMDse-18" style="edgeStyle=orthogonalEdgeStyle;rounded=0;orthogonalLoop=1;jettySize=auto;html=1;exitX=0.5;exitY=1;exitDx=0;exitDy=0;entryX=0.5;entryY=0;entryDx=0;entryDy=0;" edge="1" parent="1" source="9Qf3MclOuTPKe-SrMDse-14" target="9Qf3MclOuTPKe-SrMDse-2">
          <mxGeometry relative="1" as="geometry" />
        </mxCell>
        <mxCell id="9Qf3MclOuTPKe-SrMDse-14" value="TOTAL A PAGAR" style="rounded=1;whiteSpace=wrap;html=1;" vertex="1" parent="1">
          <mxGeometry x="241" y="500" width="120" height="60" as="geometry" />
        </mxCell>
        <mxCell id="9Qf3MclOuTPKe-SrMDse-21" value="AGREGAR PRODUCTOS AL PEDIDO" style="rounded=1;whiteSpace=wrap;html=1;" vertex="1" parent="1">
          <mxGeometry x="450" y="430" width="120" height="60" as="geometry" />
        </mxCell>
      </root>
    </mxGraphModel>
  </diagram>
</mxfile>
